# xmcd CD database file
#
# Track frame offsets:
#	150
#	23748
#	38594
#	54581
#	67452
#	85302
#	101958
#	118873
#	132652
#	143304
#	160280
#	178382
#	195520
#	233750
#	251364
#	265478
#	295586
#	308539
#
# Disc length: 4411 seconds
#
# Revision: 0
# Processed by: cddbd v1.5PL3 Copyright (c) Steve Scherf et al.
# Submitted via: CDex 1.50
#
DISCID=06113912
DTITLE=Jimi Hendrix - Flashing(1-9)  - On The Killing Floor(10-18) - The Authentic PPX Studio Recordings Vol. 2 and 6
DYEAR=1900
DGENRE=Blues
TTITLE0=Love, Love
TTITLE1=Day Tripper
TTITLE2=Gloomy Monday
TTITLE3=Fool For Your Baby
TTITLE4=Don't Accuse Me
TTITLE5=Hornet's Nest
TTITLE6=Flashing
TTITLE7=Oddball
TTITLE8=Happy Birthday
TTITLE9=On The Killing Floor (live)
TTITLE10=Money (live)
TTITLE11=Nobody Loves Me (live)
TTITLE12=Love (studio, instr.)
TTITLE13=You Got Me Running (live)
TTITLE14=Mr. Pitiful (live)
TTITLE15=Torture Me Honey (studio, instr.)
TTITLE16=Sleepy Fate (studio, instr.)
TTITLE17=Satisfaction (live)
EXTD=
EXTT0=
EXTT1=
EXTT2=
EXTT3=
EXTT4=
EXTT5=
EXTT6=
EXTT7=
EXTT8=
EXTT9=
EXTT10=
EXTT11=
EXTT12=
EXTT13=
EXTT14=
EXTT15=
EXTT16=
EXTT17=
PLAYORDER=
